<?xml version='1.0' encoding='UTF-8'?>
<svg viewBox="-2 -5 32 32" xmlns="http://www.w3.org/2000/svg" xmlns:xlink="http://www.w3.org/1999/xlink">
  <g id="Glyph" transform="translate(-2, -4)">
    <path d="M24.972, 12.288C24.608, 7.657 20.723, 4 16, 4C11.96, 4 8.492, 6.624 7.373, 10.451C4.181, 11.559 2, 14.583 2, 18C2, 22.411 5.589, 26 10, 26L23, 26C26.86, 26 30, 22.86 30, 19C30, 15.851 27.93, 13.148 24.972, 12.288zM20.707, 17.707L16.707, 21.707C16.512, 21.902 16.256, 22 16, 22C15.744, 22 15.488, 21.902 15.293, 21.707L11.293, 17.707C11.007, 17.421 10.921, 16.991 11.076, 16.617C11.231, 16.244 11.596, 16 12, 16L14, 16L14, 12C14, 10.896 14.896, 10 16, 10C17.104, 10 18, 10.896 18, 12L18, 16L20, 16C20.404, 16 20.769, 16.244 20.924, 16.617C21.079, 16.991 20.993, 17.421 20.707, 17.707z" fill="#1177D7" id="XMLID_267_" class="Blue" />
  </g>
</svg>