<?xml version="1.0" ?><!DOCTYPE svg  PUBLIC '-//W3C//DTD SVG 1.1//EN'  'http://www.w3.org/Graphics/SVG/1.1/DTD/svg11.dtd'><svg enable-background="new 0 0 512 512" height="512px" id="Calque_1" version="1.1" viewBox="0 0 512 512" width="512px" xml:space="preserve" xmlns="http://www.w3.org/2000/svg" xmlns:xlink="http://www.w3.org/1999/xlink"><g><path d="M430,91.33H325.56V81c0-10.2-8.3-18.5-18.5-18.5h-10.11V25.69c0-3.31-2.69-6-6-6h-69.89c-3.32,0-6,2.69-6,6   V62.5h-10.12c-10.2,0-18.5,8.3-18.5,18.5v10.33H82c-3.32,0-6,2.68-6,6v388.98c0,3.31,2.68,6,6,6h348c3.32,0,6-2.69,6-6V97.33   C436,94.01,433.32,91.33,430,91.33z M227.05,31.69h57.9V62.5h-57.9V31.69z M198.44,97.47c0-0.05,0.01-0.09,0.01-0.14   s-0.01-0.1-0.01-0.15V81c0-3.58,2.92-6.5,6.5-6.5h102.12c3.58,0,6.5,2.92,6.5,6.5v16.23c0,0.03-0.01,0.06-0.01,0.1   c0,0.03,0.01,0.06,0.01,0.09v16.22c0,3.59-2.92,6.5-6.5,6.5H204.94c-3.58,0-6.5-2.91-6.5-6.5V97.47z M424,480.31H88V103.33h98.44   v10.31c0,10.21,8.3,18.51,18.5,18.51h102.12c10.2,0,18.5-8.31,18.5-18.51v-10.31H424V480.31z" fill="#788C23"/><path d="M325.56,103.33v10.31c0,10.2-8.3,18.51-18.5,18.51H204.94c-10.2,0-18.5-8.3-18.5-18.51v-10.31H88v376.98   h336V103.33H325.56z M407.42,459.64c0,3.31-2.69,6-6,6H110.58c-3.31,0-6-2.69-6-6V153.02c0-3.31,2.69-6,6-6h290.84   c3.31,0,6,2.69,6,6V459.64z" fill="#A9C352"/><path d="M401.42,147.02H110.58c-3.31,0-6,2.69-6,6v306.62c0,3.31,2.69,6,6,6h290.84c3.31,0,6-2.69,6-6V153.02   C407.42,149.71,404.73,147.02,401.42,147.02z M395.42,453.64H116.58V159.02h278.84V453.64z" fill="#788C23"/><path d="M116.58,159.02v294.62h278.84V159.02H116.58z M214.38,192.6h83.24c3.31,0,6,2.69,6,6c0,3.32-2.69,6-6,6   h-83.24c-3.31,0-6-2.68-6-6C208.38,195.29,211.07,192.6,214.38,192.6z M361.5,388.26h-211c-3.31,0-6-2.69-6-6s2.69-6,6-6h211   c3.31,0,6,2.69,6,6S364.81,388.26,361.5,388.26z M361.5,351.53h-211c-3.31,0-6-2.69-6-6s2.69-6,6-6h211c3.31,0,6,2.69,6,6   S364.81,351.53,361.5,351.53z M361.5,314.8h-211c-3.31,0-6-2.69-6-6s2.69-6,6-6h211c3.31,0,6,2.69,6,6S364.81,314.8,361.5,314.8z    M361.5,278.07h-211c-3.31,0-6-2.69-6-6c0-3.32,2.69-6,6-6h211c3.31,0,6,2.68,6,6C367.5,275.38,364.81,278.07,361.5,278.07z    M361.5,241.34h-211c-3.31,0-6-2.69-6-6c0-3.32,2.69-6,6-6h211c3.31,0,6,2.68,6,6C367.5,238.65,364.81,241.34,361.5,241.34z" fill="#DBF471"/><path d="M303.62,198.6c0,3.32-2.69,6-6,6h-83.24c-3.31,0-6-2.68-6-6c0-3.31,2.69-6,6-6h83.24   C300.93,192.6,303.62,195.29,303.62,198.6z" fill="#788C23"/><path d="M367.5,235.34c0,3.31-2.69,6-6,6h-211c-3.31,0-6-2.69-6-6c0-3.32,2.69-6,6-6h211   C364.81,229.34,367.5,232.02,367.5,235.34z" fill="#788C23"/><path d="M367.5,272.07c0,3.31-2.69,6-6,6h-211c-3.31,0-6-2.69-6-6c0-3.32,2.69-6,6-6h211   C364.81,266.07,367.5,268.75,367.5,272.07z" fill="#788C23"/><path d="M367.5,308.8c0,3.31-2.69,6-6,6h-211c-3.31,0-6-2.69-6-6s2.69-6,6-6h211   C364.81,302.8,367.5,305.49,367.5,308.8z" fill="#788C23"/><path d="M367.5,345.53c0,3.31-2.69,6-6,6h-211c-3.31,0-6-2.69-6-6s2.69-6,6-6h211   C364.81,339.53,367.5,342.22,367.5,345.53z" fill="#788C23"/><path d="M367.5,382.26c0,3.31-2.69,6-6,6h-211c-3.31,0-6-2.69-6-6s2.69-6,6-6h211   C364.81,376.26,367.5,378.95,367.5,382.26z" fill="#788C23"/></g></svg>