<?xml version='1.0' encoding='UTF-8'?>
<svg viewBox="-2 -5.5025 32 32" xmlns="http://www.w3.org/2000/svg" xmlns:xlink="http://www.w3.org/1999/xlink">
  <g transform="translate(0, -3.5025)">
    <g transform="matrix(1.1667, 0, 0, 1.1667, 0, 0)">
      <g id="_32._Veiw">
        <path d="M23.909, 11.582C21.943, 7.311 17.5, 3 12, 3C6.5, 3 2.057, 7.311 0.091, 11.582A1.008 1.008 0 0 0 0.091, 12.418C2.057, 16.689 6.5, 21 12, 21C17.5, 21 21.943, 16.689 23.909, 12.418A1.008 1.008 0 0 0 23.909, 11.582zM12, 19C7.589, 19 3.854, 15.448 2.11, 12C3.854, 8.552 7.589, 5 12, 5C16.411, 5 20.146, 8.552 21.89, 12C20.146, 15.448 16.411, 19 12, 19z" fill="#D11C1C" class="Red" />
      </g>
    </g>
  </g>
  <g transform="translate(0, -3.5025)">
    <g transform="matrix(1.1667, 0, 0, 1.1667, 0, 0)">
      <g id="_32._Veiw">
        <path d="M12, 7A5 5 0 1 0 17, 12A5.006 5.006 0 0 0 12, 7zM12, 15A3 3 0 1 1 15, 12A3 3 0 0 1 12, 15z" fill="#039C23" class="Green" />
      </g>
    </g>
  </g>
</svg>