<svg version="1.1" id="Layer_1" xmlns="http://www.w3.org/2000/svg" xmlns:xlink="http://www.w3.org/1999/xlink" x="0px" y="0px"
	 width="637px" height="504px" viewBox="0 0 637 504" enable-background="new 0 0 1945 504" xml:space="preserve">
<g>
	<path fill="#0079BE" d="M372.69,504c137.75,0.659,263.48-112.341,263.48-249.81c0-150.33-125.73-254.24-263.48-254.19h-118.55
		c-139.4-0.05-254.14,103.891-254.14,254.19c0,137.499,114.74,250.47,254.14,249.81H372.69z"/>
	<path fill="#FFFFFF" d="M254.701,20.83c-127.38,0.04-230.6,103.29-230.63,230.721C24.101,378.96,127.32,482.2,254.701,482.24
		C382.111,482.2,485.352,378.96,485.37,251.551C485.351,124.12,382.111,20.87,254.701,20.83z M108.511,251.551L108.511,251.551
		c0.12-62.27,39.01-115.37,93.85-136.471v272.91C147.521,366.901,108.63,313.83,108.511,251.551z M307.021,388.05L307.021,388.05
		V115.071c54.86,21.05,93.81,74.18,93.91,136.48C400.831,313.87,361.881,366.96,307.021,388.05z"/>
</g>
</svg>
